<svg width="40" height="40" viewBox="0 0 40 40" fill="none" xmlns="http://www.w3.org/2000/svg">
<path d="M33.6001 11.7864C32.5897 12.2342 31.5041 12.5367 30.3629 12.6735C31.5404 11.9689 32.4214 10.86 32.8414 9.55364C31.7351 10.2108 30.5243 10.6733 29.2617 10.9211C28.4126 10.0146 27.288 9.41366 26.0624 9.21174C24.8368 9.00982 23.5789 9.21818 22.4838 9.80445C21.3888 10.3907 20.518 11.3221 20.0065 12.4541C19.4951 13.586 19.3716 14.8551 19.6554 16.0643C17.4138 15.9518 15.2209 15.3692 13.219 14.3543C11.2171 13.3394 9.45105 11.9149 8.03535 10.1733C7.55128 11.0083 7.27294 11.9764 7.27294 13.0075C7.2724 13.9357 7.50098 14.8496 7.93839 15.6683C8.3758 16.487 9.00852 17.185 9.78041 17.7005C8.88522 17.672 8.00978 17.4301 7.22695 16.995V17.0676C7.22686 18.3694 7.67718 19.6312 8.50148 20.6388C9.32579 21.6464 10.4733 22.3378 11.7494 22.5956C10.9189 22.8204 10.0483 22.8535 9.20316 22.6924C9.56318 23.8126 10.2645 24.7921 11.2089 25.4939C12.1532 26.1957 13.2934 26.5846 14.4698 26.6061C12.4728 28.1738 10.0066 29.0241 7.46778 29.0204C7.01806 29.0205 6.56871 28.9943 6.12207 28.9417C8.69909 30.5987 11.6989 31.478 14.7627 31.4746C25.1338 31.4746 30.8034 22.8849 30.8034 15.4351C30.8034 15.193 30.7974 14.9486 30.7865 14.7065C31.8893 13.909 32.8413 12.9214 33.5977 11.79L33.6001 11.7864Z" fill="#F9F9F9"/>
</svg>
